<?xml version="1.0" standalone="no"?>
<!DOCTYPE svg PUBLIC "-//W3C//DTD SVG 20010904//EN"
 "http://www.w3.org/TR/2001/REC-SVG-20010904/DTD/svg10.dtd">
<svg version="1.0" xmlns="http://www.w3.org/2000/svg"
 width="2877.000000pt" height="749.000000pt" viewBox="0 0 2877.000000 749.000000"
 preserveAspectRatio="xMidYMid meet">

<g transform="translate(0.000000,749.000000) scale(0.100000,-0.100000)"
fill="#000000" stroke="none">
<path d="M5100 5272 c-19 -10 -82 -45 -140 -77 -267 -149 -599 -269 -915 -330
-270 -52 -355 -59 -735 -59 -430 0 -571 14 -1010 101 -116 23 -193 34 -227 31
-160 -13 -237 -204 -132 -331 43 -52 69 -63 228 -96 422 -89 724 -121 1141
-121 427 0 692 31 1040 121 311 81 656 223 903 373 117 71 157 154 128 264
-30 110 -181 176 -281 124z"/>
<path d="M5482 4399 c-19 -6 -81 -37 -139 -70 -397 -229 -865 -387 -1374 -464
-244 -36 -406 -47 -699 -47 -444 0 -747 38 -1102 137 -68 19 -137 35 -154 35
-150 0 -278 -139 -260 -284 12 -92 65 -165 152 -209 62 -32 375 -106 600 -142
462 -75 1059 -75 1539 -1 573 89 1132 277 1552 521 166 97 206 150 206 270 0
84 -18 130 -72 184 -65 65 -167 93 -249 70z"/>
<path d="M5875 3366 c-23 -7 -72 -31 -111 -53 -273 -160 -673 -312 -1036 -393
-51 -11 -111 -25 -133 -30 -100 -23 -357 -64 -530 -84 -608 -71 -1253 -49
-1805 60 -93 18 -297 69 -334 84 -44 17 -140 12 -199 -10 -75 -28 -130 -79
-168 -155 -29 -59 -31 -70 -27 -142 7 -129 65 -220 172 -269 51 -23 245 -77
386 -107 836 -176 1844 -162 2725 38 396 90 721 200 1033 351 324 155 394 215
422 362 41 219 -181 415 -395 348z"/>
</g>
</svg>
